<svg xmlns="http://www.w3.org/2000/svg" xmlns:xlink="http://www.w3.org/1999/xlink" viewBox="0,0,256,256" width="44px" height="44px" fill-rule="none"><g fill="#ae1332" fill-rule="none" stroke="none" stroke-width="1" stroke-linecap="butt" stroke-linejoin="miter" stroke-miterlimit="10" stroke-dasharray="" stroke-dashoffset="0" font-family="none" font-weight="none" font-size="none" text-anchor="none" style="mix-blend-mode: normal"><g transform="scale(4,4)"><path d="M43.462,52h-22.924c-2.28,0 -4.424,-0.888 -6.037,-2.5c-1.612,-1.613 -2.501,-3.757 -2.501,-6.039v-22.922c0,-2.281 0.889,-4.426 2.501,-6.038c1.613,-1.612 3.757,-2.5 6.037,-2.5h22.924c2.28,0 4.424,0.888 6.037,2.5c1.612,1.612 2.501,3.756 2.501,6.038v22.923c0,2.281 -0.889,4.426 -2.501,6.038c-1.613,1.612 -3.757,2.5 -6.037,2.5zM20.538,16c-1.212,0 -2.352,0.472 -3.209,1.33c-0.857,0.856 -1.329,1.996 -1.329,3.209v22.923c0,1.213 0.472,2.353 1.329,3.209c0.857,0.857 1.997,1.33 3.209,1.33h22.924c1.212,0 2.352,-0.472 3.209,-1.33c0.857,-0.857 1.329,-1.997 1.329,-3.21v-22.922c0,-1.213 -0.472,-2.353 -1.329,-3.209c-0.858,-0.858 -1.997,-1.33 -3.209,-1.33z" fill-rule="nonzero"></path><path d="M32,19c3.867,0 7,3.133 7,7c0,3.867 -3.133,7 -7,7c-3.867,0 -7,-3.133 -7,-7c0,-3.867 3.133,-7 7,-7zM32,29.062c1.656,0 3,-1.344 3,-3c0,-1.656 -1.344,-3 -3,-3c-1.656,0 -3,1.344 -3,3c0,1.656 1.344,3 3,3z" fill-rule="evenodd"></path><path d="M35.398,38.903c1.391,-0.395 2.715,-1.025 3.918,-1.892c0.724,-0.523 0.902,-1.554 0.397,-2.303c-0.505,-0.749 -1.502,-0.931 -2.228,-0.411c-1.612,1.165 -3.509,1.779 -5.484,1.779c-1.97,0 -3.863,-0.612 -5.475,-1.77c-0.725,-0.522 -1.723,-0.336 -2.226,0.414c-0.505,0.75 -0.326,1.781 0.4,2.303c1.199,0.862 2.518,1.488 3.903,1.882l-4.134,4.273c-0.625,0.646 -0.625,1.693 0,2.339c0.312,0.322 0.721,0.483 1.131,0.483c0.41,0 0.819,-0.161 1.131,-0.485l5.269,-5.447l5.269,5.447c0.313,0.324 0.722,0.485 1.131,0.485c0.41,0 0.818,-0.161 1.131,-0.485c0.625,-0.646 0.625,-1.693 0,-2.339z" fill-rule="nonzero"></path></g></g></svg>